<?xml version="1.0" encoding="UTF-8"?>
<svg width="120px" height="120px" viewBox="0 0 120 120" version="1.1" xmlns="http://www.w3.org/2000/svg" xmlns:xlink="http://www.w3.org/1999/xlink">
    <!-- Generator: Sketch 55.2 (78181) - https://sketchapp.com -->
    <title>icon</title>
    <desc>Created with Sketch.</desc>
    <defs>
        <linearGradient x1="82.4549788%" y1="81.9518008%" x2="4.90598517%" y2="29.5252913%" id="linearGradient-1">
            <stop stop-color="#2DC38B" offset="0%"></stop>
            <stop stop-color="#1EA674" offset="100%"></stop>
        </linearGradient>
    </defs>
    <g id="Design" stroke="none" stroke-width="1" fill="none" fill-rule="evenodd">
        <g id="00-登陆备份" transform="translate(-664.000000, -161.000000)">
            <g id="icon" transform="translate(656.000000, 149.000000)">
                <rect id="矩形" x="0" y="0" width="144" height="144"></rect>
                <path d="M106.147571,76.2015217 C118.668727,79.1058301 128,90.3309658 128,103.735537 C128,119.345569 115.345569,132 99.7355372,132 C86.3309658,132 75.1058301,122.668727 72.2015217,110.147571 C67.7235731,111.460815 62.9853783,112.165289 58.0826446,112.165289 C30.4227638,112.165289 8,89.7425255 8,62.0826446 C8,34.4227638 30.4227638,12 58.0826446,12 C85.7425255,12 108.165289,34.4227638 108.165289,62.0826446 C108.165289,66.9853783 107.460815,71.7235731 106.14757,76.2015253 Z M106.147571,76.2015217 C104.08746,75.7236745 101.940998,75.4710744 99.7355372,75.4710744 C84.1255054,75.4710744 71.4710744,88.1255054 71.4710744,103.735537 C71.4710744,105.940998 71.7236745,108.08746 72.2015217,110.147571 C88.5090009,105.365093 101.365093,92.5090009 106.14757,76.2015253 Z" id="形状结合" fill="url(#linearGradient-1)"></path>
            </g>
        </g>
    </g>
</svg>