<svg xmlns="http://www.w3.org/2000/svg" xmlns:xlink="http://www.w3.org/1999/xlink" width="118" height="62" viewBox="0 0 118 62">
  <defs>
    <style>
      .cls-1 {
        fill: #00abff;
        font-size: 12px;
        font-family: PingFangSC, PingFang SC;
      }

      .cls-2 {
        font-family: SFCompactDisplay-Regular, SF Compact Display;
      }

      .cls-3, .cls-4 {
        fill-rule: evenodd;
      }

      .cls-3 {
        fill: url(#linear-gradient);
      }

      .cls-4 {
        fill: url(#linear-gradient-2);
      }

      .cls-5 {
        fill: none;
        stroke: #00abff;
        stroke-width: 0.5px;
      }
    </style>
    <linearGradient id="linear-gradient" x1="1" y1="0.69" x2="0.5" y2="0.5" gradientUnits="objectBoundingBox">
      <stop offset="0" stop-color="#36f1f9"/>
      <stop offset="1" stop-color="#1ccefc"/>
    </linearGradient>
    <linearGradient id="linear-gradient-2" x1="0.5" x2="0.5" y2="1" gradientUnits="objectBoundingBox">
      <stop offset="0" stop-color="#36f9c7"/>
      <stop offset="1" stop-color="#27f48e"/>
    </linearGradient>
  </defs>
  <g id="logobtm" transform="translate(-148 -604)">
    <text id="天驰TV" class="cls-1" transform="translate(207 662)"><tspan x="-18.809" y="0">天驰</tspan><tspan class="cls-2" y="0">TV</tspan></text>
    <g id="logo" transform="translate(182 604)">
      <path id="Fill-1" class="cls-3" d="M16.109,36.452C6.649,36.555-1.108,28.26.13,8.753c1.648-.44,7.792-2.18,9.374-2.5C7.743,21.558,11.167,28.6,18.966,29.626,27.891,30.8,37.371,20.4,49,15.332,38.563,23.04,26.86,36.333,16.109,36.452Z"/>
      <path id="Fill-6" class="cls-4" d="M19.2,0a57.006,57.006,0,0,0-9.1.763q-.446,2.7-.732,5.125c18.6-3.747,32.284,1.623,39.5,9.077C44.236,6.586,34.065,0,19.23,0Z"/>
    </g>
    <line id="Line_27" data-name="Line 27" class="cls-5" x2="30" transform="translate(236 657)"/>
    <line id="Line_49" data-name="Line 49" class="cls-5" x2="30" transform="translate(148 657)"/>
  </g>
</svg>
