<svg id="logo" xmlns="http://www.w3.org/2000/svg" xmlns:xlink="http://www.w3.org/1999/xlink" width="49" height="36.453" viewBox="0 0 49 36.453">
  <defs>
    <style>
      .cls-1, .cls-2 {
        fill-rule: evenodd;
      }

      .cls-1 {
        fill: url(#linear-gradient);
      }

      .cls-2 {
        fill: url(#linear-gradient-2);
      }
    </style>
    <linearGradient id="linear-gradient" x1="1" y1="0.69" x2="0.5" y2="0.5" gradientUnits="objectBoundingBox">
      <stop offset="0" stop-color="#36f1f9"/>
      <stop offset="1" stop-color="#1ccefc"/>
    </linearGradient>
    <linearGradient id="linear-gradient-2" x1="0.5" x2="0.5" y2="1" gradientUnits="objectBoundingBox">
      <stop offset="0" stop-color="#36f9c7"/>
      <stop offset="1" stop-color="#27f48e"/>
    </linearGradient>
  </defs>
  <path id="Fill-1" class="cls-1" d="M16.109,36.452C6.649,36.555-1.108,28.26.13,8.753c1.648-.44,7.792-2.18,9.374-2.5C7.743,21.558,11.167,28.6,18.966,29.626,27.891,30.8,37.371,20.4,49,15.332,38.563,23.04,26.86,36.333,16.109,36.452Z"/>
  <path id="Fill-6" class="cls-2" d="M19.2,0a57.006,57.006,0,0,0-9.1.763q-.446,2.7-.732,5.125c18.6-3.747,32.284,1.623,39.5,9.077C44.236,6.586,34.065,0,19.23,0Z"/>
</svg>
